<svg width="24" height="24" viewBox="0 0 24 24" fill="none" xmlns="http://www.w3.org/2000/svg">
<g clip-path="url(#clip0_4_132)">
<path d="M23.6409 14.9029C22.0381 21.3315 15.5262 25.2438 9.09606 23.6407C2.66863 22.038 -1.24415 15.5265 0.359423 9.09837C1.96159 2.66903 8.47348 -1.24361 14.9016 0.359081C21.3313 1.96177 25.2438 8.47404 23.6408 14.903L23.6409 14.9029H23.6409Z" fill="#F7931A"/>
<path d="M17.2918 10.2906C17.5307 8.69364 16.3148 7.83523 14.6521 7.26258L15.1915 5.09939L13.8745 4.77127L13.3494 6.87751C13.0032 6.79117 12.6477 6.70981 12.2943 6.62916L12.8232 4.50902L11.5071 4.18091L10.9674 6.3434C10.6809 6.27817 10.3995 6.21371 10.1265 6.14579L10.128 6.13898L8.31188 5.68552L7.96155 7.09195C7.96155 7.09195 8.93862 7.31589 8.91803 7.32968C9.45132 7.46277 9.54776 7.81575 9.53175 8.09554L8.91732 10.5599C8.95405 10.5692 9.00168 10.5827 9.05424 10.6039C9.0103 10.5929 8.96355 10.581 8.91504 10.5694L8.05383 14.0217C7.98865 14.1837 7.82323 14.4268 7.45038 14.3345C7.46358 14.3536 6.4932 14.0956 6.4932 14.0956L5.83936 15.603L7.55315 16.0301C7.87198 16.1101 8.18441 16.1937 8.49209 16.2724L7.94712 18.4604L9.26255 18.7885L9.80223 16.6237C10.1616 16.7213 10.5103 16.8112 10.8517 16.8961L10.3139 19.0506L11.6309 19.3787L12.1758 17.1948C14.4215 17.6198 16.11 17.4485 16.8208 15.4175C17.3935 13.7823 16.7923 12.8391 15.6108 12.2241C16.4713 12.0256 17.1195 11.4597 17.2923 10.2908L17.2919 10.2905L17.2918 10.2906ZM14.2829 14.5094C13.8759 16.1446 11.1225 15.2606 10.2298 15.039L10.9529 12.1403C11.8456 12.3631 14.7083 12.8041 14.283 14.5094H14.2829ZM14.6902 10.2669C14.3189 11.7543 12.0272 10.9986 11.2838 10.8133L11.9394 8.18434C12.6829 8.36963 15.077 8.71546 14.6903 10.2669H14.6902Z" fill="white"/>
</g>
<defs>
<clipPath id="clip0_4_132">
<rect width="24" height="24" fill="white"/>
</clipPath>
</defs>
</svg>
