<svg width="24" height="24" viewBox="0 0 24 24" fill="none" xmlns="http://www.w3.org/2000/svg">
<g clip-path="url(#clip0_4_372)">
<path d="M20.4 0H3.6C1.61177 0 0 1.61177 0 3.6V20.4C0 22.3882 1.61177 24 3.6 24H20.4C22.3882 24 24 22.3882 24 20.4V3.6C24 1.61177 22.3882 0 20.4 0Z" fill="white"/>
<path d="M12 16.9688V21.9844L18.1406 13.3125L12 16.9688Z" fill="#3C3C3B"/>
<path d="M12 1.92188L18.1406 12.1406L12 15.7969L5.8125 12.1406" fill="#343434"/>
<path d="M12 1.92188V9.32812L5.8125 12.1406M5.8125 13.3125L12 16.9688V21.9844" fill="#8C8C8C"/>
<path d="M12 9.32812V15.7969L18.1406 12.1406" fill="#141414"/>
<path d="M5.8125 12.1406L12 9.32812V15.7969" fill="#393939"/>
</g>
<defs>
<clipPath id="clip0_4_372">
<rect width="24" height="24" rx="12" fill="white"/>
</clipPath>
</defs>
</svg>
