<svg width="23" height="23" viewBox="0 0 23 23" fill="none" xmlns="http://www.w3.org/2000/svg">
<path d="M2.51341e-07 2.5134e-07H5.75V1.91667H2.51341e-07V2.5134e-07Z" fill="#535D79"/>
<path d="M1.91667 2.5134e-07L1.91667 5.75H0L2.51341e-07 2.5134e-07H1.91667Z" fill="#535D79"/>
<path d="M2.51341e-07 23H5.75V21.0833H2.51341e-07V23Z" fill="#535D79"/>
<path d="M1.91667 23L1.91667 17.25H0L2.51341e-07 23H1.91667Z" fill="#535D79"/>
<path d="M23 5.02682e-07V5.75L21.0833 5.75V4.18902e-07L23 5.02682e-07Z" fill="#535D79"/>
<path d="M23 1.91667L17.25 1.91667V0L23 5.02682e-07V1.91667Z" fill="#535D79"/>
<path d="M23 23V17.25H21.0833V23H23Z" fill="#535D79"/>
<path d="M23 21.0833H17.25V23H23V21.0833Z" fill="#535D79"/>
<path d="M0 15.3333H5.75V17.25H0V15.3333Z" fill="#535D79"/>
<path d="M3.83333 15.3333L3.83333 6.70833L5.75 6.70833V15.3333H3.83333Z" fill="#535D79"/>
<path d="M3.83333 7.66667V5.75L4.79167 5.75V7.66667H3.83333Z" fill="#535D79"/>
<path d="M18.2083 7.66667V5.75L19.1667 5.75V7.66667H18.2083Z" fill="#535D79"/>
<path d="M16.2917 11.5V7.66667H17.25V11.5H16.2917Z" fill="#535D79"/>
<path d="M15.3333 12.4583V8.625H16.2917V12.4583H15.3333Z" fill="#535D79"/>
<path d="M14.375 13.4167V9.58333H15.3333V13.4167H14.375Z" fill="#535D79"/>
<path d="M13.4167 14.375V10.5417H14.375V14.375H13.4167Z" fill="#535D79"/>
<path d="M12.4583 15.3333V11.5H13.4167V15.3333H12.4583Z" fill="#535D79"/>
<path d="M11.5 16.2917V12.4583H12.4583V16.2917H11.5Z" fill="#535D79"/>
<path d="M5.75 11.5V7.66667H6.70833V11.5H5.75Z" fill="#535D79"/>
<path d="M6.70833 12.4583V8.625H7.66667V12.4583H6.70833Z" fill="#535D79"/>
<path d="M7.66667 13.4167V9.58333H8.625V13.4167H7.66667Z" fill="#535D79"/>
<path d="M8.625 14.375V10.5417H9.58333V14.375H8.625Z" fill="#535D79"/>
<path d="M9.58333 15.3333V11.5H10.5417V15.3333H9.58333Z" fill="#535D79"/>
<path d="M10.5417 16.2917V12.4583H11.5V16.2917H10.5417Z" fill="#535D79"/>
<path d="M17.25 15.3333V6.70833L19.1667 6.70833V15.3333H17.25Z" fill="#535D79"/>
<path d="M17.25 15.3333H23V17.25H17.25V15.3333Z" fill="#535D79"/>
</svg>
