<svg width="14" height="14" viewBox="0 0 14 14" fill="none" xmlns="http://www.w3.org/2000/svg">
<path d="M6.99984 1.16675C3.78509 1.16675 1.1665 3.78533 1.1665 7.00008C1.1665 10.2148 3.78509 12.8334 6.99984 12.8334C10.2146 12.8334 12.8332 10.2148 12.8332 7.00008C12.8332 3.78533 10.2146 1.16675 6.99984 1.16675ZM6.99984 2.33341C9.58407 2.33341 11.6665 4.41584 11.6665 7.00008C11.6665 9.58432 9.58407 11.6667 6.99984 11.6667C4.4156 11.6667 2.33317 9.58432 2.33317 7.00008C2.33317 4.41584 4.4156 2.33341 6.99984 2.33341ZM6.4165 4.08341V5.25008H7.58317V4.08341H6.4165ZM6.4165 6.41675V9.91675H7.58317V6.41675H6.4165Z" fill="#535D79"/>
</svg>
