<svg width="24" height="24" viewBox="0 0 24 24" fill="none" xmlns="http://www.w3.org/2000/svg">
<g clip-path="url(#clip0_12_1770)">
<path d="M23.9999 12.0001C23.9999 18.6273 18.6279 24.0001 12.0002 24.0001C5.3725 24.0001 0.000488281 18.6273 0.000488281 12.0001C0.000488281 5.37284 5.37263 0 12.0002 0C18.6278 0 23.9999 5.37233 23.9999 12.0001Z" fill="white"/>
<path d="M11.9999 0C5.37457 0 -0.00695956 5.38045 0.00147474 11.9997C0.00313605 13.324 0.214313 14.5979 0.610661 15.7895H4.20086V5.69475L11.9999 13.4937L19.7986 5.69475V15.7897H23.3895C23.7865 14.5982 23.9966 13.3243 23.9989 11.9999C24.0102 5.37374 18.6259 0.00159741 11.9999 0.00159741V0Z" fill="#F26822"/>
<path d="M10.2063 15.2866L6.80276 11.8828V18.235H4.20059L1.74512 18.2354C3.85133 21.6909 7.65775 24.0025 11.9999 24.0025C16.342 24.0025 20.1486 21.6904 22.2552 18.2349H17.1962V11.8828L13.7925 15.2866L11.9995 17.0796L10.2064 15.2866H10.2063Z" fill="#4D4D4D"/>
</g>
<defs>
<clipPath id="clip0_12_1770">
<rect width="24" height="24.0026" fill="white"/>
</clipPath>
</defs>
</svg>
